<svg id="Layer_1" data-name="Layer 1" xmlns="http://www.w3.org/2000/svg" viewBox="0 0 122.88 84.76"><defs><style>.cls-1{fill-rule:evenodd;}</style></defs><title>tablets</title><path fill="#FFFFFF" class="cls-1" d="M31.31,8.55A17.17,17.17,0,0,1,54.7,2.28h0A17.18,17.18,0,0,1,61,25.67C51.24,42.53,41.53,59.23,31.79,76.09h0A17,17,0,0,1,2.28,59h0C12,42.16,21.56,25.43,31.31,8.55ZM91.57,76.21a17.18,17.18,0,0,1-23.4,6.27h0a17.19,17.19,0,0,1-6.27-23.4C71.63,42.22,81.35,25.53,91.09,8.67h0a17,17,0,0,1,29.51,17h0c-9.72,16.87-19.28,33.6-29,50.49ZM79.67,33.8l24.79,14.31,13.45-23.3h0A14.31,14.31,0,0,0,93.12,10.49h0L79.67,33.8ZM43.21,51,18.42,36.64,5,60H5A14.31,14.31,0,0,0,29.76,74.27h0L43.21,51Z"/></svg>